<svg width="24" height="18" viewBox="0 0 24 18" fill="none" xmlns="http://www.w3.org/2000/svg">
<path fill-rule="evenodd" clip-rule="evenodd" d="M23.5 9C23.5 9.82843 22.8284 10.5 22 10.5L2 10.5C1.17157 10.5 0.5 9.82843 0.5 9C0.5 8.17157 1.17157 7.5 2 7.5L22 7.5C22.8284 7.5 23.5 8.17157 23.5 9Z" fill="#2e8b57"/>
<path fill-rule="evenodd" clip-rule="evenodd" d="M13.9393 17.0607C13.3536 16.4749 13.3536 15.5251 13.9393 14.9393L19.8787 9L13.9393 3.06066C13.3536 2.47487 13.3536 1.52513 13.9393 0.93934C14.5251 0.353554 15.4749 0.353554 16.0607 0.93934L23.0607 7.93934C23.6464 8.52513 23.6464 9.47487 23.0607 10.0607L16.0607 17.0607C15.4749 17.6464 14.5251 17.6464 13.9393 17.0607Z" fill="#2e8b57"/>
</svg>
